<svg xmlns="http://www.w3.org/2000/svg" viewBox="0 0 50.37 55.31"><g style="isolation:isolate"><polygon points="17.4 43.6 14.21 45.46 11 43.6 14.19 41.75 17.4 43.6" style="fill:#c9e900"/><polygon points="17.4 43.6 17.39 47.49 14.2 49.34 14.21 45.46 17.4 43.6" style="fill:#c9e900"/><polygon points="14.21 45.46 14.2 49.34 10.99 47.49 11 43.6 14.21 45.46" style="fill:#c9e900"/></g><g style="isolation:isolate"><polygon points="17.4 31.68 14.21 33.53 11 31.68 14.19 29.82 17.4 31.68" style="fill:#c9e900"/><polygon points="17.4 31.68 17.39 35.56 14.2 37.42 14.21 33.53 17.4 31.68" style="fill:#c9e900"/><polygon points="14.21 33.53 14.2 37.42 10.99 35.56 11 31.68 14.21 33.53" style="fill:#c9e900"/></g><g style="isolation:isolate"><polygon points="17.4 19.75 14.21 21.6 11 19.75 14.19 17.89 17.4 19.75" style="fill:#c9e900"/><polygon points="17.4 19.75 17.39 23.63 14.2 25.49 14.21 21.6 17.4 19.75" style="fill:#c9e900"/><polygon points="14.21 21.6 14.2 25.49 10.99 23.63 11 19.75 14.21 21.6" style="fill:#c9e900"/></g><g style="isolation:isolate"><polygon points="17.4 7.82 14.21 9.67 11 7.82 14.19 5.96 17.4 7.82" style="fill:#c9e900"/><polygon points="17.4 7.82 17.39 11.71 14.2 13.56 14.21 9.67 17.4 7.82" style="fill:#c9e900"/><polygon points="14.21 9.67 14.2 13.56 10.99 11.71 11 7.82 14.21 9.67" style="fill:#c9e900"/></g><g style="isolation:isolate"><polygon points="28.39 49.57 25.2 51.42 22 49.57 25.18 47.72 28.39 49.57" style="fill:#c9e900"/><polygon points="28.39 49.57 28.38 53.46 25.19 55.31 25.2 51.42 28.39 49.57" style="fill:#c9e900"/><polygon points="25.2 51.42 25.19 55.31 21.98 53.46 22 49.57 25.2 51.42" style="fill:#c9e900"/></g><g style="isolation:isolate"><polygon points="28.39 37.64 25.2 39.49 22 37.64 25.18 35.79 28.39 37.64" style="fill:#c9e900"/><polygon points="28.39 37.64 28.38 41.53 25.19 43.38 25.2 39.49 28.39 37.64" style="fill:#c9e900"/><polygon points="25.2 39.49 25.19 43.38 21.98 41.53 22 37.64 25.2 39.49" style="fill:#c9e900"/></g><g style="isolation:isolate"><polygon points="28.39 25.71 25.2 27.56 22 25.71 25.18 23.86 28.39 25.71" style="fill:#c9e900"/><polygon points="28.39 25.71 28.38 29.6 25.19 31.45 25.2 27.56 28.39 25.71" style="fill:#c9e900"/><polygon points="25.2 27.56 25.19 31.45 21.98 29.6 22 25.71 25.2 27.56" style="fill:#c9e900"/></g><g style="isolation:isolate"><polygon points="28.39 13.78 25.2 15.63 22 13.78 25.18 11.93 28.39 13.78" style="fill:#c9e900"/><polygon points="28.39 13.78 28.38 17.67 25.19 19.52 25.2 15.63 28.39 13.78" style="fill:#c9e900"/><polygon points="25.2 15.63 25.19 19.52 21.98 17.67 22 13.78 25.2 15.63" style="fill:#c9e900"/></g><g style="isolation:isolate"><polygon points="28.39 1.85 25.2 3.7 22 1.85 25.18 0 28.39 1.85" style="fill:#c9e900"/><polygon points="28.39 1.85 28.38 5.74 25.19 7.59 25.2 3.7 28.39 1.85" style="fill:#c9e900"/><polygon points="25.2 3.7 25.19 7.59 21.98 5.74 22 1.85 25.2 3.7" style="fill:#c9e900"/></g><g style="isolation:isolate"><polygon points="6.41 37.64 3.22 39.49 0.01 37.64 3.2 35.79 6.41 37.64" style="fill:#c9e900"/><polygon points="6.41 37.64 6.39 41.53 3.21 43.38 3.22 39.49 6.41 37.64" style="fill:#c9e900"/><polygon points="3.22 39.49 3.21 43.38 0 41.53 0.01 37.64 3.22 39.49" style="fill:#c9e900"/></g><g style="isolation:isolate"><polygon points="6.41 25.71 3.22 27.56 0.01 25.71 3.2 23.86 6.41 25.71" style="fill:#c9e900"/><polygon points="6.41 25.71 6.39 29.6 3.21 31.45 3.22 27.56 6.41 25.71" style="fill:#c9e900"/><polygon points="3.22 27.56 3.21 31.45 0 29.6 0.01 25.71 3.22 27.56" style="fill:#c9e900"/></g><g style="isolation:isolate"><polygon points="6.41 13.78 3.22 15.63 0.01 13.78 3.2 11.93 6.41 13.78" style="fill:#c9e900"/><polygon points="6.41 13.78 6.39 17.67 3.21 19.52 3.22 15.63 6.41 13.78" style="fill:#c9e900"/><polygon points="3.22 15.63 3.21 19.52 0 17.67 0.01 13.78 3.22 15.63" style="fill:#c9e900"/></g><g style="isolation:isolate"><polygon points="32.98 11.61 36.16 9.76 39.37 11.61 36.18 13.46 32.98 11.61" style="fill:#c9e900"/><polygon points="32.98 11.61 32.99 7.72 36.17 5.87 36.16 9.76 32.98 11.61" style="fill:#c9e900"/><polygon points="36.16 9.76 36.17 5.87 39.38 7.72 39.37 11.61 36.16 9.76" style="fill:#c9e900"/></g><g style="isolation:isolate"><polygon points="32.98 23.54 36.16 21.69 39.37 23.54 36.18 25.39 32.98 23.54" style="fill:#c9e900"/><polygon points="32.98 23.54 32.99 19.65 36.17 17.8 36.16 21.69 32.98 23.54" style="fill:#c9e900"/><polygon points="36.16 21.69 36.17 17.8 39.38 19.65 39.37 23.54 36.16 21.69" style="fill:#c9e900"/></g><g style="isolation:isolate"><polygon points="32.98 35.47 36.16 33.62 39.37 35.47 36.18 37.32 32.98 35.47" style="fill:#c9e900"/><polygon points="32.98 35.47 32.99 31.58 36.17 29.73 36.16 33.62 32.98 35.47" style="fill:#c9e900"/><polygon points="36.16 33.62 36.17 29.73 39.38 31.58 39.37 35.47 36.16 33.62" style="fill:#c9e900"/></g><g style="isolation:isolate"><polygon points="32.98 47.4 36.16 45.55 39.37 47.4 36.18 49.25 32.98 47.4" style="fill:#c9e900"/><polygon points="32.98 47.4 32.99 43.51 36.17 41.66 36.16 45.55 32.98 47.4" style="fill:#c9e900"/><polygon points="36.16 45.55 36.17 41.66 39.38 43.51 39.37 47.4 36.16 45.55" style="fill:#c9e900"/></g><g style="isolation:isolate"><polygon points="43.97 17.67 47.16 15.82 50.36 17.67 47.18 19.52 43.97 17.67" style="fill:#c9e900"/><polygon points="43.97 17.67 43.98 13.78 47.17 11.93 47.16 15.82 43.97 17.67" style="fill:#c9e900"/><polygon points="47.16 15.82 47.17 11.93 50.37 13.78 50.36 17.67 47.16 15.82" style="fill:#c9e900"/></g><g style="isolation:isolate"><polygon points="43.97 29.6 47.16 27.75 50.36 29.6 47.18 31.45 43.97 29.6" style="fill:#c9e900"/><polygon points="43.97 29.6 43.98 25.71 47.17 23.86 47.16 27.75 43.97 29.6" style="fill:#c9e900"/><polygon points="47.16 27.75 47.17 23.86 50.37 25.71 50.36 29.6 47.16 27.75" style="fill:#c9e900"/></g><g style="isolation:isolate"><polygon points="43.97 41.53 47.16 39.68 50.36 41.53 47.18 43.38 43.97 41.53" style="fill:#c9e900"/><polygon points="43.97 41.53 43.98 37.64 47.17 35.79 47.16 39.68 43.97 41.53" style="fill:#c9e900"/><polygon points="47.16 39.68 47.17 35.79 50.37 37.64 50.36 41.53 47.16 39.68" style="fill:#c9e900"/></g></svg>