<svg xmlns="http://www.w3.org/2000/svg" viewBox="0 0 259.71 55.31"><g style="isolation:isolate"><polygon points="17.4 43.6 14.21 45.46 11 43.6 14.19 41.75 17.4 43.6" style="fill:#c9e900"/><polygon points="17.4 43.6 17.39 47.49 14.2 49.34 14.21 45.46 17.4 43.6" style="fill:#c9e900"/><polygon points="14.21 45.46 14.2 49.34 10.99 47.49 11 43.6 14.21 45.46" style="fill:#c9e900"/></g><g style="isolation:isolate"><polygon points="17.4 31.68 14.21 33.53 11 31.68 14.19 29.82 17.4 31.68" style="fill:#c9e900"/><polygon points="17.4 31.68 17.39 35.56 14.2 37.42 14.21 33.53 17.4 31.68" style="fill:#c9e900"/><polygon points="14.21 33.53 14.2 37.42 10.99 35.56 11 31.68 14.21 33.53" style="fill:#c9e900"/></g><g style="isolation:isolate"><polygon points="17.4 19.75 14.21 21.6 11 19.75 14.19 17.89 17.4 19.75" style="fill:#c9e900"/><polygon points="17.4 19.75 17.39 23.63 14.2 25.49 14.21 21.6 17.4 19.75" style="fill:#c9e900"/><polygon points="14.21 21.6 14.2 25.49 10.99 23.63 11 19.75 14.21 21.6" style="fill:#c9e900"/></g><g style="isolation:isolate"><polygon points="17.4 7.82 14.21 9.67 11 7.82 14.19 5.96 17.4 7.82" style="fill:#c9e900"/><polygon points="17.4 7.82 17.39 11.71 14.2 13.56 14.21 9.67 17.4 7.82" style="fill:#c9e900"/><polygon points="14.21 9.67 14.2 13.56 10.99 11.71 11 7.82 14.21 9.67" style="fill:#c9e900"/></g><g style="isolation:isolate"><polygon points="28.39 49.57 25.2 51.42 22 49.57 25.18 47.72 28.39 49.57" style="fill:#c9e900"/><polygon points="28.39 49.57 28.38 53.46 25.19 55.31 25.2 51.42 28.39 49.57" style="fill:#c9e900"/><polygon points="25.2 51.42 25.19 55.31 21.98 53.46 22 49.57 25.2 51.42" style="fill:#c9e900"/></g><g style="isolation:isolate"><polygon points="28.39 37.64 25.2 39.49 22 37.64 25.18 35.79 28.39 37.64" style="fill:#c9e900"/><polygon points="28.39 37.64 28.38 41.53 25.19 43.38 25.2 39.49 28.39 37.64" style="fill:#c9e900"/><polygon points="25.2 39.49 25.19 43.38 21.98 41.53 22 37.64 25.2 39.49" style="fill:#c9e900"/></g><g style="isolation:isolate"><polygon points="28.39 25.71 25.2 27.56 22 25.71 25.18 23.86 28.39 25.71" style="fill:#c9e900"/><polygon points="28.39 25.71 28.38 29.6 25.19 31.45 25.2 27.56 28.39 25.71" style="fill:#c9e900"/><polygon points="25.2 27.56 25.19 31.45 21.98 29.6 22 25.71 25.2 27.56" style="fill:#c9e900"/></g><g style="isolation:isolate"><polygon points="28.39 13.78 25.2 15.63 22 13.78 25.18 11.93 28.39 13.78" style="fill:#c9e900"/><polygon points="28.39 13.78 28.38 17.67 25.19 19.52 25.2 15.63 28.39 13.78" style="fill:#c9e900"/><polygon points="25.2 15.63 25.19 19.52 21.98 17.67 22 13.78 25.2 15.63" style="fill:#c9e900"/></g><g style="isolation:isolate"><polygon points="28.39 1.85 25.2 3.7 22 1.85 25.18 0 28.39 1.85" style="fill:#c9e900"/><polygon points="28.39 1.85 28.38 5.74 25.19 7.59 25.2 3.7 28.39 1.85" style="fill:#c9e900"/><polygon points="25.2 3.7 25.19 7.59 21.98 5.74 22 1.85 25.2 3.7" style="fill:#c9e900"/></g><g style="isolation:isolate"><polygon points="6.41 37.64 3.22 39.49 0.01 37.64 3.2 35.79 6.41 37.64" style="fill:#c9e900"/><polygon points="6.41 37.64 6.39 41.53 3.21 43.38 3.22 39.49 6.41 37.64" style="fill:#c9e900"/><polygon points="3.22 39.49 3.21 43.38 0 41.53 0.01 37.64 3.22 39.49" style="fill:#c9e900"/></g><g style="isolation:isolate"><polygon points="6.41 25.71 3.22 27.56 0.01 25.71 3.2 23.86 6.41 25.71" style="fill:#c9e900"/><polygon points="6.41 25.71 6.39 29.6 3.21 31.45 3.22 27.56 6.41 25.71" style="fill:#c9e900"/><polygon points="3.22 27.56 3.21 31.45 0 29.6 0.01 25.71 3.22 27.56" style="fill:#c9e900"/></g><g style="isolation:isolate"><polygon points="6.41 13.78 3.22 15.63 0.01 13.78 3.2 11.93 6.41 13.78" style="fill:#c9e900"/><polygon points="6.41 13.78 6.39 17.67 3.21 19.52 3.22 15.63 6.41 13.78" style="fill:#c9e900"/><polygon points="3.22 15.63 3.21 19.52 0 17.67 0.01 13.78 3.22 15.63" style="fill:#c9e900"/></g><g style="isolation:isolate"><polygon points="32.98 11.61 36.16 9.76 39.37 11.61 36.18 13.46 32.98 11.61" style="fill:#c9e900"/><polygon points="32.98 11.61 32.99 7.72 36.17 5.87 36.16 9.76 32.98 11.61" style="fill:#c9e900"/><polygon points="36.16 9.76 36.17 5.87 39.38 7.72 39.37 11.61 36.16 9.76" style="fill:#c9e900"/></g><g style="isolation:isolate"><polygon points="32.98 23.54 36.16 21.69 39.37 23.54 36.18 25.39 32.98 23.54" style="fill:#c9e900"/><polygon points="32.98 23.54 32.99 19.65 36.17 17.8 36.16 21.69 32.98 23.54" style="fill:#c9e900"/><polygon points="36.16 21.69 36.17 17.8 39.38 19.65 39.37 23.54 36.16 21.69" style="fill:#c9e900"/></g><g style="isolation:isolate"><polygon points="32.98 35.47 36.16 33.62 39.37 35.47 36.18 37.32 32.98 35.47" style="fill:#c9e900"/><polygon points="32.98 35.47 32.99 31.58 36.17 29.73 36.16 33.62 32.98 35.47" style="fill:#c9e900"/><polygon points="36.16 33.62 36.17 29.73 39.38 31.58 39.37 35.47 36.16 33.62" style="fill:#c9e900"/></g><g style="isolation:isolate"><polygon points="32.98 47.4 36.16 45.55 39.37 47.4 36.18 49.25 32.98 47.4" style="fill:#c9e900"/><polygon points="32.98 47.4 32.99 43.51 36.17 41.66 36.16 45.55 32.98 47.4" style="fill:#c9e900"/><polygon points="36.16 45.55 36.17 41.66 39.38 43.51 39.37 47.4 36.16 45.55" style="fill:#c9e900"/></g><g style="isolation:isolate"><polygon points="43.97 17.67 47.16 15.82 50.36 17.67 47.18 19.52 43.97 17.67" style="fill:#c9e900"/><polygon points="43.97 17.67 43.98 13.78 47.17 11.93 47.16 15.82 43.97 17.67" style="fill:#c9e900"/><polygon points="47.16 15.82 47.17 11.93 50.37 13.78 50.36 17.67 47.16 15.82" style="fill:#c9e900"/></g><g style="isolation:isolate"><polygon points="43.97 29.6 47.16 27.75 50.36 29.6 47.18 31.45 43.97 29.6" style="fill:#c9e900"/><polygon points="43.97 29.6 43.98 25.71 47.17 23.86 47.16 27.75 43.97 29.6" style="fill:#c9e900"/><polygon points="47.16 27.75 47.17 23.86 50.37 25.71 50.36 29.6 47.16 27.75" style="fill:#c9e900"/></g><g style="isolation:isolate"><polygon points="43.97 41.53 47.16 39.68 50.36 41.53 47.18 43.38 43.97 41.53" style="fill:#c9e900"/><polygon points="43.97 41.53 43.98 37.64 47.17 35.79 47.16 39.68 43.97 41.53" style="fill:#c9e900"/><polygon points="47.16 39.68 47.17 35.79 50.37 37.64 50.36 41.53 47.16 39.68" style="fill:#c9e900"/></g><path d="M71.06,40.58V16h8.72a7.56,7.56,0,0,1,3.43.77A6,6,0,0,1,85.65,19a6.37,6.37,0,0,1,.91,3.47,6.1,6.1,0,0,1-.32,1.93,5.45,5.45,0,0,1-.89,1.67,3.11,3.11,0,0,1-1.41,1,4.09,4.09,0,0,1,1.87,1A5.66,5.66,0,0,1,87,29.79a8.28,8.28,0,0,1,.62,2,11.43,11.43,0,0,1,.18,2,6.54,6.54,0,0,1-.94,3.51,6.91,6.91,0,0,1-2.54,2.44,7.08,7.08,0,0,1-3.5.88Zm3.65-14.85H79.4a3.71,3.71,0,0,0,2.47-.87,3,3,0,0,0,1-2.41,2.94,2.94,0,0,0-1-2.45,3.88,3.88,0,0,0-2.47-.81H74.71Zm0,11.69h5.76a3.77,3.77,0,0,0,2-.56A4,4,0,0,0,84,35.31a4.61,4.61,0,0,0,.54-2.24A4.17,4.17,0,0,0,84,31a4.26,4.26,0,0,0-1.47-1.57,3.64,3.64,0,0,0-2-.6H74.71Z" style="fill:#fff"/><path d="M91.53,40.58V14.25h3.63V40.58Z" style="fill:#fff"/><path d="M107.31,41a8.18,8.18,0,0,1-4.42-1.25,9.19,9.19,0,0,1-3.18-3.34,9.28,9.28,0,0,1-1.18-4.64,9.41,9.41,0,0,1,2.57-6.56,8.67,8.67,0,0,1,2.8-2,8.45,8.45,0,0,1,7.82.52,9.25,9.25,0,0,1,3.18,3.36,9.34,9.34,0,0,1,1.18,4.67,9.47,9.47,0,0,1-.68,3.58,9.62,9.62,0,0,1-1.89,2.94,8.74,8.74,0,0,1-2.79,2A8.18,8.18,0,0,1,107.31,41Zm0-3.65a4.62,4.62,0,0,0,2.61-.77,5.58,5.58,0,0,0,1.83-2,5.7,5.7,0,0,0,.68-2.76,5.82,5.82,0,0,0-.69-2.81A5.64,5.64,0,0,0,109.89,27a4.61,4.61,0,0,0-2.58-.76,4.67,4.67,0,0,0-2.61.77A5.47,5.47,0,0,0,102.86,29a5.76,5.76,0,0,0-.68,2.79,5.67,5.67,0,0,0,.7,2.82,5.56,5.56,0,0,0,1.87,2A4.64,4.64,0,0,0,107.31,37.39Z" style="fill:#fff"/><path d="M130.35,35.6l3.27,1.77a9.06,9.06,0,0,1-3,2.67,8.41,8.41,0,0,1-8.39-.25A9.19,9.19,0,0,1,119,36.45a9.28,9.28,0,0,1-1.18-4.64,9.39,9.39,0,0,1,.68-3.61,9.55,9.55,0,0,1,1.89-2.95,8.67,8.67,0,0,1,2.8-2,8.41,8.41,0,0,1,7.38.28,9,9,0,0,1,3,2.68L130.35,28a5,5,0,0,0-1.72-1.35,4.66,4.66,0,0,0-2-.46A4.55,4.55,0,0,0,124,27,5.62,5.62,0,0,0,122.16,29a6,6,0,0,0,0,5.55,5.72,5.72,0,0,0,1.85,2,4.69,4.69,0,0,0,4.66.28A5.12,5.12,0,0,0,130.35,35.6Z" style="fill:#fff"/><path d="M151.66,40.58h-4.21l-4.32-7.44-2.83,3.37v4.07h-3.63V14.25h3.63V30.84L146.85,23h4.78l-6,7.14Z" style="fill:#fff"/><path d="M164,22.54a9,9,0,0,1,4.67,1.24A9.57,9.57,0,0,1,172,27.13a9,9,0,0,1,1.25,4.66,9.2,9.2,0,0,1-.72,3.59,9.39,9.39,0,0,1-4.95,4.94A9,9,0,0,1,164,41a6.09,6.09,0,0,1-3.22-.85A7.24,7.24,0,0,1,158.56,38v2.58h-3.65V14.25h3.65V25.57a7,7,0,0,1,2.25-2.19A6.09,6.09,0,0,1,164,22.54Zm0,15a5.19,5.19,0,0,0,2.79-.77,5.7,5.7,0,0,0,2-2.07,5.63,5.63,0,0,0,.75-2.86,5.73,5.73,0,0,0-2.78-5,5.22,5.22,0,0,0-2.77-.76,4.71,4.71,0,0,0-2.69.77,5.18,5.18,0,0,0-1.8,2.07,6.71,6.71,0,0,0,0,5.76,5.22,5.22,0,0,0,1.8,2.06A4.79,4.79,0,0,0,164,37.49Z" style="fill:#fff"/><path d="M175.8,32.19V23h3.65v9.09a5.78,5.78,0,0,0,.62,2.71,5,5,0,0,0,1.7,2,4.27,4.27,0,0,0,2.47.73,4,4,0,0,0,2.38-.73,4.8,4.8,0,0,0,1.59-2,6.29,6.29,0,0,0,.57-2.71V23h3.66V40.58h-3.66V38.2a7,7,0,0,1-2.21,2.08,5.56,5.56,0,0,1-2.93.78,7,7,0,0,1-4.11-1.21,7.88,7.88,0,0,1-2.73-3.22A10.33,10.33,0,0,1,175.8,32.19Z" style="fill:#fff"/><path d="M207.88,35.6l3.27,1.77a9.06,9.06,0,0,1-3,2.67,8.41,8.41,0,0,1-8.39-.25,9.19,9.19,0,0,1-3.18-3.34,9.28,9.28,0,0,1-1.18-4.64,9.39,9.39,0,0,1,.68-3.61,9.55,9.55,0,0,1,1.89-2.95,8.67,8.67,0,0,1,2.8-2,8.41,8.41,0,0,1,7.38.28,9,9,0,0,1,3,2.68L207.88,28a5,5,0,0,0-1.72-1.35,4.66,4.66,0,0,0-2-.46,4.55,4.55,0,0,0-2.6.78A5.62,5.62,0,0,0,199.69,29a6,6,0,0,0,0,5.55,5.72,5.72,0,0,0,1.85,2,4.69,4.69,0,0,0,4.66.28A5.12,5.12,0,0,0,207.88,35.6Z" style="fill:#fff"/><path d="M229.19,40.58H225l-4.32-7.44-2.83,3.37v4.07H214.2V14.25h3.63V30.84L224.38,23h4.78l-6,7.14Z" style="fill:#fff"/><path d="M238.86,41a8.17,8.17,0,0,1-4.41-1.25,9.19,9.19,0,0,1-3.18-3.34,9.28,9.28,0,0,1-1.18-4.64,9.39,9.39,0,0,1,.68-3.61,9.55,9.55,0,0,1,1.89-2.95,8.67,8.67,0,0,1,2.8-2,8.17,8.17,0,0,1,3.4-.72,8.35,8.35,0,0,1,3.71.83,8.54,8.54,0,0,1,2.87,2.3A9.44,9.44,0,0,1,247.2,29a10.27,10.27,0,0,1,.33,4.05H234a5.74,5.74,0,0,0,.89,2.18,4.75,4.75,0,0,0,4,2.12,4.54,4.54,0,0,0,2.43-.67,5.29,5.29,0,0,0,1.8-1.84l3.71.86a9.36,9.36,0,0,1-3.18,3.82A8.18,8.18,0,0,1,238.86,41Zm-5-10.74h10A5.26,5.26,0,0,0,243,28a5.34,5.34,0,0,0-1.77-1.64,4.68,4.68,0,0,0-2.33-.6,4.73,4.73,0,0,0-2.31.59A5.14,5.14,0,0,0,234.8,28,5.88,5.88,0,0,0,233.88,30.3Z" style="fill:#fff"/><path d="M259.71,26.68H256l0,13.9h-3.65l0-13.9h-2.79V23h2.79l0-5.51H256L256,23h3.68Z" style="fill:#fff"/></svg>